<?xml version="1.0" standalone="no"?>
<!DOCTYPE svg PUBLIC "-//W3C//DTD SVG 20010904//EN"
 "http://www.w3.org/TR/2001/REC-SVG-20010904/DTD/svg10.dtd">
<svg version="1.0" xmlns="http://www.w3.org/2000/svg"
 width="400.000000pt" height="400.000000pt" viewBox="0 0 400.000000 400.000000"
 preserveAspectRatio="xMidYMid meet">

<g transform="translate(0.000000,400.000000) scale(0.100000,-0.100000)"
fill="#000000" stroke="none">
<path d="M2999 3411 c-65 -13 -106 -44 -347 -268 l-240 -222 -47 16 c-132 45
-281 -37 -322 -177 -16 -54 -13 -88 12 -176 5 -17 -54 -76 -369 -368 -404
-373 -383 -349 -388 -458 l-3 -48 -185 -173 c-205 -191 -217 -210 -189 -284
26 -67 112 -103 172 -71 12 6 104 87 204 179 194 180 187 176 260 154 43 -13
90 24 435 342 194 179 362 334 374 345 20 17 22 17 55 1 55 -28 146 -29 207
-3 56 24 116 83 138 136 16 38 19 140 5 176 -8 22 11 42 240 254 267 245 286
269 296 366 16 164 -145 310 -308 279z m-841 -1067 c15 -10 22 -25 22 -49 0
-30 -14 -46 -132 -158 -302 -282 -474 -439 -493 -447 -11 -5 -37 -11 -57 -15
-31 -5 -71 -38 -238 -193 -189 -175 -230 -208 -230 -184 0 6 89 92 198 192
194 180 232 223 232 267 0 20 144 158 582 560 50 46 79 53 116 27z"/>
<path d="M903 929 c-110 -159 -123 -187 -123 -266 0 -94 58 -181 147 -218 45
-19 140 -19 186 0 88 36 147 126 147 223 0 48 -8 68 -86 210 -47 86 -91 163
-97 169 -7 7 -26 15 -43 19 -31 6 -33 4 -131 -137z"/>
</g>
</svg>